<svg width="1920" height="861" viewBox="0 0 1920 861" fill="none" xmlns="http://www.w3.org/2000/svg">
<path opacity="0.1" d="M304.003 668.543C195.931 602.158 1.92637 539.407 -101 526.747V-974H2487V506.49C2153.81 867.058 1919.71 934.549 1803.38 790.083C1606.62 545.737 1529.78 826.798 1340.93 578.654C1230.74 433.879 1064.75 345.826 782.252 691.332C622.836 886.301 439.004 751.469 304.003 668.543Z" fill="#7F6AEB"/>
<path opacity="0.1" d="M136.003 634.369C27.9306 584.481 -166.074 537.323 -269 527.809V-600H2319V512.586C1985.81 783.553 1751.71 834.272 1635.38 725.706C1438.62 542.081 1361.78 753.297 1172.93 566.817C1062.74 458.019 896.753 391.848 614.252 651.495C454.836 798.014 271.004 696.687 136.003 634.369Z" fill="#7F6AEB"/>
<path d="M215.003 606.746C106.931 575.96 -87.0736 546.858 -190 540.987V-155H2398V531.592C2064.81 698.809 1830.71 730.109 1714.38 663.111C1517.62 549.794 1440.78 680.138 1251.93 565.059C1141.74 497.918 975.753 457.083 693.252 617.315C533.836 707.734 350.004 645.204 215.003 606.746Z" fill="#7F6AEB"/>
</svg>
