<svg width="513" height="457" viewBox="0 0 513 457" fill="none" xmlns="http://www.w3.org/2000/svg">
<g clip-path="url(#clip0_4_211)">
<path d="M512.969 304.866C514.101 347.218 471.742 388.123 424.568 415.875C408.046 425.629 391.021 433.684 374.971 439.694C323.359 458.982 279.93 457.503 247.861 456.497C247.389 456.434 246.98 456.434 246.508 456.434C245.501 456.371 244.431 456.371 243.424 456.308C190.333 454.105 136.55 442.652 89.2817 417.889C88.0229 417.228 86.7955 416.567 85.5367 415.875C44.7825 394.07 4.09116 362.951 0.283234 313.33C-1.60499 288.913 6.10527 264.087 20.7705 244.547C36.6316 223.466 59.7939 211.635 80.7217 196.374C95.4499 185.613 101.996 170.069 108.888 153.896C113.703 142.663 118.927 131.556 124.938 120.889C128.274 115.068 131.704 109.436 135.512 103.898C162.073 65.2273 206.006 36.9086 252.582 30.238C301.109 23.3471 347.434 45.9706 379.219 82.3758C398.416 104.276 411.602 131.367 417.298 159.937C421.987 183.285 417.172 212.484 435.362 230.797C456.448 252.005 486.754 245.711 503.905 272.142C512.465 285.263 512.811 298.982 513 304.803L512.969 304.866Z" fill="#DFEAF7"/>
<path d="M342.084 220.162C385.198 183.222 398.007 115.792 368.519 72.4013C351.525 47.3865 325.31 37.5065 312.439 33.6992C307.089 25.8958 293.525 8.58999 270.552 2.29696C230.49 -8.71585 195.746 23.0954 190.837 27.5949C144.827 69.6953 127.487 172.492 190.333 222.71C231.15 255.34 297.679 258.172 342.052 220.162H342.084Z" fill="#002D53"/>
<path d="M286.822 158.868H237.413V219.816H286.822V158.868Z" fill="#FFB3AE"/>
<path d="M286.822 158.868V188.193C260.733 190.081 245.847 186.714 237.413 181.554V158.868H286.822Z" fill="#FF7A72"/>
<path d="M335.664 122.274C330.943 134.828 319.488 142.128 310.047 138.573C300.606 135.017 296.798 121.99 301.518 109.436C306.239 96.8812 317.694 89.5813 327.135 93.1369C336.577 96.6924 340.385 109.719 335.664 122.274Z" fill="#FFB3AE"/>
<path d="M196.533 122.274C201.254 134.828 212.709 142.128 222.15 138.573C231.591 135.017 235.399 121.99 230.678 109.436C225.958 96.8812 214.503 89.5813 205.062 93.1369C195.62 96.6924 191.812 109.719 196.533 122.274Z" fill="#FFB3AE"/>
<path d="M312.061 110.663C320.023 132.531 294.91 176.173 262.81 176.173C235.619 176.173 213.558 146.848 213.558 110.663C213.558 71.2371 253.117 40.3383 262.81 45.1525C266.712 47.0719 263.502 53.6481 266.995 64.8811C275.366 91.7209 305.263 92.0356 312.03 110.663H312.061Z" fill="#FFB3AE"/>
<path d="M400.871 391.08H118.864V336.174C118.864 258.329 181.994 195.21 259.852 195.21C337.741 195.21 400.839 258.329 400.839 336.174V391.08H400.871Z" fill="#FFB042"/>
<path d="M442.884 303.45H365.215V391.836H442.884V303.45Z" fill="#3D71F2"/>
<path d="M467.588 347.942C467.588 355.651 461.326 361.881 453.615 361.881C449.272 361.881 445.402 359.899 442.852 356.815V375.568C446.157 376.89 449.807 377.582 453.615 377.582C470.011 377.582 483.292 364.335 483.292 347.973C483.292 331.611 470.011 318.302 453.615 318.302C449.839 318.302 446.188 318.994 442.852 320.315V339.069C445.402 335.985 449.272 334.003 453.615 334.003C461.326 334.003 467.588 340.233 467.588 347.973V347.942Z" fill="#3D71F2"/>
<path d="M499.499 391.836H26.1835V415.844H499.499V391.836Z" fill="#D18C7E"/>
<path d="M107.409 337.401C105.772 295.458 106.37 242.596 120.28 239.607C120.752 239.513 122.42 239.167 124.088 240.048C135.354 245.837 122.357 293.066 107.409 337.432V337.401Z" fill="#40C1B0"/>
<path d="M107.409 337.401C86.89 301.436 77.0082 294.923 71.8785 296.528C69.9274 297.125 68.5427 298.95 68.0391 300.618C64.483 312.229 98.3452 332.209 107.44 337.401H107.409Z" fill="#40C1B0"/>
<path d="M107.409 337.401C107.409 337.401 126.543 282.337 139.76 285.609C152.978 288.882 107.409 337.401 107.409 337.401Z" fill="#40C1B0"/>
<path d="M77.3859 391.08H129.753L134.379 326.986H72.7598L77.3859 391.08Z" fill="#FF828A"/>
<path d="M355.648 248.575H164.056C157.503 248.575 152.191 253.886 152.191 260.437V380.005C152.191 386.556 157.503 391.867 164.056 391.867H355.648C362.2 391.867 367.512 386.556 367.512 380.005V260.437C367.512 253.886 362.2 248.575 355.648 248.575Z" fill="white"/>
<path d="M259.852 341.24C269.029 341.24 276.468 333.801 276.468 324.626C276.468 315.451 269.029 308.012 259.852 308.012C250.675 308.012 243.235 315.451 243.235 324.626C243.235 333.801 250.675 341.24 259.852 341.24Z" fill="#DFEAF7"/>
<path d="M424.6 415.844C408.078 425.598 391.052 433.653 375.002 439.663C323.391 458.951 279.961 457.472 247.893 456.465C247.421 456.402 247.012 456.402 246.54 456.402C245.533 456.339 244.463 456.339 243.456 456.276C190.365 454.074 136.582 442.62 89.3132 417.857C88.0544 417.197 86.8271 416.536 85.5682 415.844H424.631H424.6Z" fill="#BC7F72"/>
</g>
<defs>
<clipPath id="clip0_4_211">
<rect width="513" height="457" fill="white"/>
</clipPath>
</defs>
</svg>
