<svg width="220" height="220" viewBox="0 0 220 220" fill="none" xmlns="http://www.w3.org/2000/svg">
<path fill-rule="evenodd" clip-rule="evenodd" d="M102 8C102 3.58179 105.582 0 110 0C114.418 0 118 3.58179 118 8V24C118 28.4182 114.418 32 110 32C105.582 32 102 28.4182 102 24V8ZM175 110C175 145.898 145.899 175 110 175C74.1014 175 45 145.898 45 110C45 74.1016 74.1014 45 110 45C145.899 45 175 74.1016 175 110ZM110 188C105.582 188 102 191.582 102 196V212C102 216.418 105.582 220 110 220C114.418 220 118 216.418 118 212V196C118 191.582 114.418 188 110 188ZM8 118C3.58167 118 0 114.418 0 110C0 105.582 3.58167 102 8 102H24C28.4183 102 32 105.582 32 110C32 114.418 28.4183 118 24 118H8ZM188 110C188 114.418 191.582 118 196 118H212C216.418 118 220 114.418 220 110C220 105.582 216.418 102 212 102H196C191.582 102 188 105.582 188 110ZM32.2183 43.5317C29.0941 40.4077 29.0941 35.3423 32.2183 32.2183C35.3424 29.094 40.4077 29.094 43.532 32.2183L54.8457 43.5317C57.9698 46.656 57.9698 51.7214 54.8457 54.8455C51.7214 57.9697 46.6561 57.9697 43.532 54.8455L32.2183 43.5317ZM165.154 165.154C162.03 168.278 162.03 173.344 165.154 176.468L176.468 187.782C179.592 190.906 184.658 190.906 187.782 187.782C190.906 184.657 190.906 179.592 187.782 176.468L176.468 165.154C173.344 162.03 168.279 162.03 165.154 165.154ZM176.468 32.2183C179.592 29.0942 184.658 29.0942 187.782 32.2183C190.906 35.3425 190.906 40.408 187.782 43.532L176.468 54.8457C173.344 57.97 168.279 57.97 165.154 54.8457C162.03 51.7217 162.03 46.6562 165.154 43.532L176.468 32.2183ZM54.8457 165.155C51.7214 162.03 46.6561 162.03 43.532 165.155L32.2183 176.468C29.094 179.592 29.094 184.658 32.2183 187.782C35.3424 190.906 40.4077 190.906 43.532 187.782L54.8457 176.468C57.9698 173.344 57.9698 168.279 54.8457 165.155Z" fill="#FCAA06"/>
</svg>
